<svg aria-hidden="true" style="width:0;height:0;position:absolute;overflow:hidden" xmlns="http://www.w3.org/2000/svg"><defs><symbol id="icon-search" viewBox="0 0 32 32"><path d="m31.008 27.231-7.58-6.447c-.784-.705-1.622-1.029-2.299-.998a11.954 11.954 0 0 0 2.87-7.787c0-6.627-5.373-12-12-12s-12 5.373-12 12 5.373 12 12 12c2.972 0 5.691-1.081 7.787-2.87-.031.677.293 1.515.998 2.299l6.447 7.58c1.104 1.226 2.907 1.33 4.007.23s.997-2.903-.23-4.007zM12 20a8 8 0 1 1 0-16 8 8 0 0 1 0 16z"/><path transform="translate(-1327 -24)" fill="#fff" d="M0 0h1440v5269H0z"/><g id="Navi"><path transform="translate(-1238 -24)" fill="#fff" d="M0 0h1262v72H0z"/><g id="Items"><g id="Icon 01"><path id="Icon Color" fill-rule="evenodd" clip-rule="evenodd" d="M10 2.25a7.75 7.75 0 1 0 4.924 13.735l5.546 5.545.084.073a.75.75 0 0 0 .976-1.133l-5.545-5.546A7.75 7.75 0 0 0 10 2.25Zm0 1.5a6.25 6.25 0 1 1 0 12.5 6.25 6.25 0 0 1 0-12.5Z" fill="#111"/></g></g></g></symbol><symbol id="icon-arrow-right2" viewBox="0 0 32 32"><path d="m19.414 27.414 10-10a2 2 0 0 0 0-2.828l-10-10a2 2 0 1 0-2.828 2.828L23.172 14H4a2 2 0 1 0 0 4h19.172l-6.586 6.586c-.39.39-.586.902-.586 1.414s.195 1.024.586 1.414a2 2 0 0 0 2.828 0z"/></symbol><symbol id="icon-arrow-down2" viewBox="0 0 32 32"><path d="m27.414 19.414-10 10a2 2 0 0 1-2.828 0l-10-10a2 2 0 1 1 2.828-2.828L14 23.172V4a2 2 0 1 1 4 0v19.172l6.586-6.586c.39-.39.902-.586 1.414-.586s1.024.195 1.414.586a2 2 0 0 1 0 2.828z"/></symbol></defs></svg>