<svg aria-hidden="true" style="position: absolute; width: 0; height: 0; overflow: hidden;" version="1.1" xmlns="http://www.w3.org/2000/svg" xmlns:xlink="http://www.w3.org/1999/xlink">
<defs>
<symbol id="icon-Icon-01" viewBox="0 0 32 32">
<path d="M13.333 3c-5.707 0-10.333 4.626-10.333 10.333s4.626 10.333 10.333 10.333c2.493 0 4.78-0.883 6.566-2.354l7.394 7.394 0.112 0.097c0.391 0.291 0.947 0.258 1.302-0.097 0.391-0.391 0.391-1.024 0-1.414l-7.394-7.394c1.471-1.785 2.354-4.072 2.354-6.566 0-5.707-4.626-10.333-10.333-10.333zM13.333 5c4.602 0 8.333 3.731 8.333 8.333s-3.731 8.333-8.333 8.333c-4.602 0-8.333-3.731-8.333-8.333s3.731-8.333 8.333-8.333z"></path>
</symbol>
<symbol id="icon-Icon" viewBox="0 0 32 32">
<path d="M5.68 12.838c-0.463-0.463-0.463-1.213 0-1.676 0.421-0.421 1.079-0.459 1.543-0.115l0.133 0.115 8.643 8.643 8.643-8.643c0.421-0.421 1.079-0.459 1.543-0.115l0.133 0.115c0.421 0.421 0.459 1.079 0.115 1.543l-0.115 0.133-9.482 9.482c-0.421 0.421-1.079 0.459-1.543 0.115l-0.133-0.115-9.482-9.482z"></path>
</symbol>
<symbol id="icon-search" viewBox="0 0 32 32">
<path d="M31.008 27.231l-7.58-6.447c-0.784-0.705-1.622-1.029-2.299-0.998 1.789-2.096 2.87-4.815 2.87-7.787 0-6.627-5.373-12-12-12s-12 5.373-12 12 5.373 12 12 12c2.972 0 5.691-1.081 7.787-2.87-0.031 0.677 0.293 1.515 0.998 2.299l6.447 7.58c1.104 1.226 2.907 1.33 4.007 0.23s0.997-2.903-0.23-4.007zM12 20c-4.418 0-8-3.582-8-8s3.582-8 8-8 8 3.582 8 8-3.582 8-8 8z"></path>
</symbol>
<symbol id="icon-arrow-right2" viewBox="0 0 32 32">
<path d="M19.414 27.414l10-10c0.781-0.781 0.781-2.047 0-2.828l-10-10c-0.781-0.781-2.047-0.781-2.828 0s-0.781 2.047 0 2.828l6.586 6.586h-19.172c-1.105 0-2 0.895-2 2s0.895 2 2 2h19.172l-6.586 6.586c-0.39 0.39-0.586 0.902-0.586 1.414s0.195 1.024 0.586 1.414c0.781 0.781 2.047 0.781 2.828 0z"></path>
</symbol>
<symbol id="icon-arrow-down2" viewBox="0 0 32 32">
<path d="M27.414 19.414l-10 10c-0.781 0.781-2.047 0.781-2.828 0l-10-10c-0.781-0.781-0.781-2.047 0-2.828s2.047-0.781 2.828 0l6.586 6.586v-19.172c0-1.105 0.895-2 2-2s2 0.895 2 2v19.172l6.586-6.586c0.39-0.39 0.902-0.586 1.414-0.586s1.024 0.195 1.414 0.586c0.781 0.781 0.781 2.047 0 2.828z"></path>
</symbol>
</defs>
</svg>
